<svg width="24" height="24" viewBox="0 0 24 24" fill="none" xmlns="http://www.w3.org/2000/svg">
<path d="M20.19 14.06L19.06 12.18C18.81 11.77 18.59 10.98 18.59 10.5V8.63C18.59 5 15.64 2.05 12.02 2.05C8.38999 2.06 5.43999 5 5.43999 8.63V10.49C5.43999 10.97 5.21999 11.76 4.97999 12.17L3.84999 14.05C3.41999 14.78 3.31999 15.61 3.58999 16.33C3.85999 17.06 4.46999 17.64 5.26999 17.9C6.34999 18.26 7.43999 18.52 8.54999 18.71C8.65999 18.73 8.76999 18.74 8.87999 18.76C9.01999 18.78 9.16999 18.8 9.31999 18.82C9.57999 18.86 9.83999 18.89 10.11 18.91C10.74 18.97 11.38 19 12.02 19C12.65 19 13.28 18.97 13.9 18.91C14.13 18.89 14.36 18.87 14.58 18.84C14.76 18.82 14.94 18.8 15.12 18.77C15.23 18.76 15.34 18.74 15.45 18.72C16.57 18.54 17.68 18.26 18.76 17.9C19.53 17.64 20.12 17.06 20.4 16.32C20.68 15.57 20.6 14.75 20.19 14.06ZM12.75 10C12.75 10.42 12.41 10.76 11.99 10.76C11.57 10.76 11.23 10.42 11.23 10V6.9C11.23 6.48 11.57 6.14 11.99 6.14C12.41 6.14 12.75 6.48 12.75 6.9V10Z" fill="#c4c4c4"/>
<path d="M14.83 20.01C14.41 21.17 13.3 22 12 22C11.21 22 10.43 21.68 9.87999 21.11C9.55999 20.81 9.31999 20.41 9.17999 20C9.30999 20.02 9.43999 20.03 9.57999 20.05C9.80999 20.08 10.05 20.11 10.29 20.13C10.86 20.18 11.44 20.21 12.02 20.21C12.59 20.21 13.16 20.18 13.72 20.13C13.93 20.11 14.14 20.1 14.34 20.07C14.5 20.05 14.66 20.03 14.83 20.01Z" fill="#c4c4c4"/>
<circle cx="19" cy="5" r="5" fill="#FF5630"/>
<path d="M15.366 4.984C15.366 4.38 15.494 3.896 15.75 3.532C16.006 3.16 16.382 2.974 16.878 2.974C17.374 2.974 17.748 3.158 18 3.526C18.256 3.89 18.384 4.376 18.384 4.984C18.384 5.6 18.254 6.102 17.994 6.49C17.738 6.874 17.366 7.066 16.878 7.066C16.39 7.066 16.016 6.872 15.756 6.484C15.496 6.096 15.366 5.596 15.366 4.984ZM17.724 4.99C17.724 4.034 17.442 3.556 16.878 3.556C16.31 3.556 16.026 4.034 16.026 4.99C16.026 5.986 16.31 6.484 16.878 6.484C17.442 6.484 17.724 5.986 17.724 4.99ZM21.714 5.728C21.714 6.12 21.572 6.442 21.288 6.694C21.008 6.942 20.668 7.066 20.268 7.066C19.956 7.066 19.68 6.99 19.44 6.838C19.2 6.682 19.012 6.472 18.876 6.208L19.32 5.896C19.576 6.288 19.886 6.484 20.25 6.484C20.49 6.484 20.684 6.416 20.832 6.28C20.984 6.14 21.06 5.958 21.06 5.734C21.06 5.51 20.98 5.338 20.82 5.218C20.664 5.098 20.44 5.038 20.148 5.038H19.71V4.864L20.634 3.622H19.158V3.04H21.624V3.214L20.664 4.51C20.952 4.558 21.2 4.688 21.408 4.9C21.612 5.108 21.714 5.384 21.714 5.728Z" fill="white"/>
</svg>
