<svg width="23" height="26" viewBox="0 0 23 26" fill="none" xmlns="http://www.w3.org/2000/svg">
<g id="kayako">
<path id="vector" d="M0 24.92C0 25.5587 0.372341 26 1.00495 26H12.9739C11.3676 22.8273 9.5692 19.9332 7.33069 17.2201C5.01462 18.6722 2.56659 19.9279 0 20.9513V24.92Z" fill="#F15713"/>
<path id="vector_2" d="M0 5.15729C2.5601 6.17744 5.00244 7.42944 7.31282 8.87628C9.55905 6.15832 11.504 3.18085 13.1144 0H1.24736C0.558308 0 0 0.563767 0 1.25932" fill="#69AAB5"/>
<path id="vector_3" d="M7.33073 17.2201C9.31953 15.9734 11.2109 14.5843 12.982 13.0541C11.2056 11.5194 9.30735 10.1263 7.31368 8.87671C6.10205 10.3431 4.80028 11.7289 3.42664 13.0378C4.80718 14.3541 6.11464 15.7469 7.33073 17.2201Z" fill="#FFB1A2"/>
<path id="vector_4" d="M12.9815 13.0545C11.2105 14.5846 9.31934 15.9735 7.33072 17.2201C9.56923 19.9332 11.3676 22.8273 12.9739 26L21.962 26C22.7916 26 23.0981 25.4115 22.7916 24.8831C20.1913 20.4039 16.8645 16.4103 12.9815 13.0545Z" fill="#F37036"/>
<path id="vector_5" d="M13.1137 0.00134426C11.5042 3.18026 9.55746 6.1601 7.31283 8.87669C9.30649 10.1262 11.2056 11.5194 12.982 13.0541C16.9235 9.64668 20.2928 5.58398 22.9097 1.02259C23.1696 0.569462 22.8366 0 22.3169 0L13.1137 0.00134426Z" fill="#85B8C1"/>
<path id="vector_6" d="M0 16.0068C1.18889 15.0713 2.3319 14.0816 3.427 13.0383C2.3319 11.9953 1.18889 11.0045 0 10.0702V16.0068Z" fill="#F76F6D"/>
<path id="vector_7" d="M0 5.15729C2.5601 6.17744 5.00244 7.42944 7.31282 8.87628C6.10121 10.3426 4.80025 11.7289 3.42664 13.0378C2.33161 11.995 1.18888 11.0045 7.10508e-05 10.0702L0 5.15729Z" fill="#F39D90"/>
<path id="vector_8" d="M7.33076 17.2202C6.11469 15.7469 4.80715 14.3542 3.42664 13.0379C2.33154 14.0813 1.18889 15.0714 0 16.0069V20.9513C2.56658 19.9279 5.0147 18.6723 7.33076 17.2202Z" fill="#FA8176"/>
</g>
</svg>
