<svg width="26" height="26" viewBox="0 0 26 26" fill="none" xmlns="http://www.w3.org/2000/svg">
<g id="slack">
<path id="vector" d="M23.5002 11.9996C24.8808 11.9996 26 10.8804 26 9.49979C26 8.11919 24.8807 7 23.5001 7C22.1194 7 21 8.11929 21 9.5V11.9996H23.5002ZM16.5 11.9996C17.8807 11.9996 19 10.8803 19 9.49957V2.5C19 1.11929 17.8807 0 16.5 0C15.1193 0 14 1.11929 14 2.5V9.49957C14 10.8803 15.1193 11.9996 16.5 11.9996Z" fill="#2EB67D"/>
<path id="vector_2" d="M2.49979 14.0004C1.11919 14.0004 9.53674e-07 15.1196 9.53674e-07 16.5002C9.53674e-07 17.8808 1.1193 19 2.49989 19C3.8806 19 5 17.8807 5 16.5V14.0004H2.49979ZM9.5 14.0004C8.11929 14.0004 7 15.1197 7 16.5004V23.5C7 24.8807 8.11929 26 9.5 26C10.8807 26 12 24.8807 12 23.5V16.5004C12 15.1197 10.8807 14.0004 9.5 14.0004Z" fill="#E01E5A"/>
<path id="vector_3" d="M14.0002 23.5002C14.0002 24.8808 15.1194 26 16.5 26C17.8806 26 18.9998 24.8807 18.9998 23.5001C18.9998 22.1194 17.8805 21 16.4998 21L14.0002 21L14.0002 23.5002ZM14.0002 16.5C14.0002 17.8807 15.1195 19 16.5002 19L23.4998 19C24.8805 19 25.9998 17.8807 25.9998 16.5C25.9998 15.1193 24.8805 14 23.4998 14L16.5002 14C15.1195 14 14.0002 15.1193 14.0002 16.5Z" fill="#ECB22E"/>
<path id="vector_4" d="M11.9998 2.49979C11.9998 1.11919 10.8806 1.42927e-06 9.49997 1.36892e-06C8.11938 1.30858e-06 7.00019 1.1193 7.00019 2.49989C7.00019 3.88061 8.11947 5 9.50018 5L11.9998 5L11.9998 2.49979ZM11.9998 9.5C11.9998 8.11929 10.8805 7 9.49975 7L2.50018 7C1.11947 7 0.000183275 8.11929 0.000183215 9.5C0.000183154 10.8807 1.11947 12 2.50018 12L9.49975 12C10.8805 12 11.9998 10.8807 11.9998 9.5Z" fill="#36C5F0"/>
</g>
</svg>
